<svg id="Layer_1" data-name="Layer 1" xmlns="http://www.w3.org/2000/svg" viewBox="0 0 1000 1000"><title>pineapple</title><path d="M482.71,972.87l30-45.61,31.83,45.61Z"/><path d="M589.49,459.16l26.24,17.07c-10,5.82-18.87,10-26.61,15.76-9.94,7.36-18.24,7.22-28.22-.34-10.64-8.05-22.62-14.33-33.22-20.89,4.1-6.27,8.16-11.52,11.23-17.3,20-37.69,47-68.13,86.87-85.79,17.65-7.81,34.61-8.34,51.94.61,10.74,5.55,17.85,13.78,20.24,25.52,3.33,16.32,2.18,32.46-3.65,51.08-2.36-5.28-3.27-8.56-5.11-11.21-7.26-10.43-13.43-22.14-22.59-30.59-11.83-10.92-26.22-10-38.82,0C609.33,417.69,599.28,438.12,589.49,459.16Z"/><path d="M333,442.75c-5-18.17-7.47-35.46-1.67-52.88,7.75-23.27,38-34.74,65-24.36,33.22,12.76,59.07,34.82,78.34,64.59,5.24,8.09,9.77,16.63,14.72,24.91,3.07,5.12,6.31,10.14,10,16-14.23,8.58-29.23,17.75-44.41,26.63a7.43,7.43,0,0,1-6.24,0c-12.29-6.86-24.4-14-38.33-22.15,8.44-5.34,15.26-10,22.39-14.05,4.46-2.55,6.34-5.42,3.3-10-9.57-14.39-17.77-30.05-29.23-42.76-16.93-18.77-37.6-17.58-53.89,2C345.32,419.77,340.16,431.05,333,442.75Z"/><path d="M564.31,589.59c-16.87,12.64-31.92,24.1-47.26,35.16-1.75,1.26-5.91,1.38-7.61.16-15.34-11-30.38-22.5-47.13-35,8.12-6.3,15-12.25,22.51-17.37,36.17-24.79,21.1-24.5,56.81,0C549,577.54,555.91,583.22,564.31,589.59Z"/><path d="M469,968.49c-14.55-16.92-28.07-32.38-41.1-48.24-1.18-1.44-.24-6.26,1.36-8.08,10.16-11.61,20.84-22.77,31.22-34.2,3.27-3.6,6.2-4.16,9.57-.31,10.59,12.09,21.35,24,31.67,36.34,1.4,1.67,1.87,6,.73,7.63C491.91,936.93,480.93,951.91,469,968.49Z"/><path d="M557.19,969.33c-11.91-16.74-23-32.08-33.7-47.65-1.09-1.58-1.1-5.39.05-6.78,11.44-13.78,23.24-27.27,36.18-42.29,10.78,11.89,20.49,22.38,29.93,33.1,11,12.49,10.83,12.51,0,25.1C579.08,943.21,568.63,955.76,557.19,969.33Z"/><path d="M301.67,735.78c15.77-15.06,30.06-28.88,44.65-42.37,1.28-1.18,5.17-1.27,6.69-.21a563.29,563.29,0,0,1,45.51,35c-4.92,3.47-10.21,6.52-14.7,10.48-9.4,8.29-18.2,17.27-27.67,25.47-2.1,1.82-7,3.24-8.84,2.07C332.4,756.8,317.92,746.74,301.67,735.78Z"/><path d="M628.28,725.46c16-11.56,30.53-22.16,45.26-32.4,1.53-1.06,5.57-1,6.66.19,13.49,14.61,26.65,29.53,40.41,45-12.26,8.29-27.28,18.57-42.5,28.53-1.29.84-4.62.33-5.88-.8C658,753,643.89,739.91,628.28,725.46Z"/><path d="M665.51,775.55c-16.72,12.19-31.92,23.41-47.37,34.26-1.33.94-5.19.22-6.53-1.09-12.83-12.57-25.37-25.43-39.16-39.39,4.92-4.11,9.38-8,14-11.68,9.1-7.16,18.13-14.43,27.62-21,2.1-1.46,7.18-1.7,8.88-.2C636.94,748.7,650.43,761.53,665.51,775.55Z"/><path d="M361.08,775.83c15.22-14.19,29.13-27.33,43.36-40.13,1.24-1.11,5.17-.9,6.69.25,14.1,10.53,27.94,21.4,41.37,31.79-13.4,14.16-26.05,27.67-39,40.93-1.1,1.13-4.64,1.51-5.91.62C392.49,798.68,377.57,787.76,361.08,775.83Z"/><path d="M621.48,821.52c18.18-13.14,33.41-24.29,48.88-35.1,1.52-1.06,5.4-1,6.69.24,12.92,11.88,25.52,24.1,38.81,36.79-17.36,11.85-33.65,23.16-50.24,34-1.54,1-5.69.07-7.33-1.41C646.41,845.3,634.87,834.17,621.48,821.52Z"/><path d="M522.84,635.24c13.35-10.07,25.63-19.73,38.33-28.81,12.88-9.21,9.75-11.9,24.54,1,10.38,9,20.72,18.13,32.26,28.24-6,4.26-11,7.9-16.08,11.5-3.93,2.79-7.84,5.62-11.86,8.27-7.7,5.08-15.53,14-23.21,13.91-7.15-.1-14.23-9.78-21.23-15.39C538.38,648.14,531.29,642.19,522.84,635.24Z"/><path d="M408.15,635.71c14.53-12.52,28-24.26,41.71-35.71,1.21-1,4.62-1,6,0,15.54,11.2,30.89,22.68,47.68,35.12-15,12.2-28.56,23.31-42.29,34.17-1.09.86-4,.75-5.22-.09C440.48,658.53,425.09,647.63,408.15,635.71Z"/><path d="M523.53,545c16.8-10.56,31.88-20.21,47.2-29.46,1.67-1,5.28-.67,7,.52,14.64,10.3,29,20.93,45.19,32.68-16.63,11.54-31.47,21.94-46.49,32.08-1.13.76-3.95.29-5.23-.64C555.89,569,540.76,557.75,523.53,545Z"/><path d="M403.31,548.79c16.58-11.94,31.48-22.81,46.61-33.36,1.32-.92,4.53-.36,6.19.64,15.06,9.09,30,18.42,46.25,28.51-3.16,2.72-5.08,4.58-7.21,6.16-12.37,9.16-24.71,18.37-37.26,27.28-2.31,1.64-6.66,3.61-8.22,2.6C434.72,570.87,420.17,560.51,403.31,548.79Z"/><path d="M402.81,820.33C390,833,378.86,844.09,367.48,854.91c-1.49,1.41-5.2,2.6-6.51,1.76-16.11-10.32-32-21-48.41-32,12.85-13.11,25.06-25.71,37.54-38,1-1,4.53-.91,5.91.06C371.17,797.34,386.13,808.27,402.81,820.33Z"/><path d="M576.07,679c16.64-11.48,31.59-22,46.82-32.06,1.78-1.18,6-1.12,7.54.2,12.52,11,24.67,22.41,38.28,34.93-16,11.57-30.84,22.51-46,33-1.39,1-5.23.2-6.78-1.12C603,703,590.42,691.7,576.07,679Z"/><path d="M349.34,598.95c15-13.74,28.83-26.54,42.9-39.07,1.21-1.08,4.6-1.28,6-.37,14.55,9.76,28.89,19.82,44.34,30.53-14.77,13-28.13,24.87-41.72,36.49-1.3,1.11-4.57,1.53-6,.68C380.08,618.29,365.51,609.06,349.34,598.95Z"/><path d="M456.86,864.19,417.45,907.4l-43.86-41.86c7.57-7.68,15.05-15.36,22.63-23,15.63-15.64,15.68-15.66,32.89-1.57C438,848.31,446.79,855.77,456.86,864.19Z"/><path d="M605.72,818.82c-14.81,12.32-28.22,23.65-41.94,34.6-1.18.94-5.13.26-6.4-1-11.84-12.08-23.38-24.46-36.19-38,13-11.82,25.44-23.25,38.15-34.32,1.27-1.11,5.33-1,6.56.13C579.12,792.64,592,805.44,605.72,818.82Z"/><path d="M607.8,908.52l-39.37-44c14.73-11.91,28.77-23.39,43-34.56,1.07-.84,4.59-.19,5.76,1,11.74,11.72,23.22,23.69,34.86,35.68Z"/><path d="M583.42,590.06c15.63-10.85,29.69-20.82,44.06-30.32,1.66-1.1,5.89-.58,7.46.82,13.56,12.16,26.79,24.7,41.5,38.42-16,10.1-30.74,19.47-45.65,28.5-1.29.78-4.51-.1-5.91-1.29C611.52,614.77,598.35,603.12,583.42,590.06Z"/><path d="M450,679c-14.63,12.89-27.47,24.34-40.57,35.5-1.22,1-4.65,1.12-6,.16-14.79-10.53-29.37-21.36-45.19-33,13.35-12.26,25.47-23.57,37.91-34.53,1.36-1.2,5.17-1.39,6.72-.36C418.07,656.86,433,667.29,450,679Z"/><path d="M421.91,820.15c13.16-13.81,25.66-27.07,38.43-40.07,1.05-1.07,4.71-1.31,5.81-.36,12.8,11,25.34,22.39,39,34.55l-43.21,38.54Z"/><path d="M513.14,907.32c-12.72-13.92-24.89-27.09-36.78-40.51-1-1.11-1-4.73,0-5.69,12.35-12,25-23.77,38.44-36.45,11.17,11.83,23.11,24.29,34.69,37.07,1,1.11.52,5.1-.71,6.49C537.32,881.14,525.55,893.79,513.14,907.32Z"/><path d="M521.88,722c14.49-11.55,27.65-22.21,41.09-32.51,1.49-1.14,5.39-1.25,6.73-.12,13.44,11.29,26.58,22.94,40.57,35.15-15.07,11.81-28.83,22.8-42.9,33.37-1.57,1.18-5.85,1-7.29-.28C547.67,746.45,535.64,734.91,521.88,722Z"/><path d="M416.3,724.36c13.85-12.11,26.77-23.55,39.92-34.72,1.31-1.11,4.73-1.61,5.9-.72,13.94,10.62,27.64,21.55,42.19,33-13.52,12.66-25.55,24.15-37.94,35.24-1.53,1.37-5.85,1.82-7.36.68C445,747.26,431.3,736.22,416.3,724.36Z"/><path d="M468.81,678.38c14.18-11.41,27.06-22,40.25-32.12,1.71-1.32,6-1.68,7.51-.49,13.42,10.32,26.5,21.09,40.73,32.58-14.64,12-27.93,22.95-41.47,33.63-1.17.92-4.54.6-5.86-.44C496.63,701.05,483.51,690.29,468.81,678.38Z"/><path d="M563.74,506.09c-17.37,11.1-32.4,20.83-47.62,30.26a7.06,7.06,0,0,1-6.16-.15c-15.17-9.51-30.15-19.3-47-30.2,16.89-10,32.23-19.19,47.66-28.19a5.42,5.42,0,0,1,4.54-.34C530.81,486.55,546.37,495.82,563.74,506.09Z"/><path d="M554.06,768.22c-13.19,12.2-24.82,23.24-36.87,33.8-1.63,1.43-6.48,1.69-8,.37-12.21-10.8-24-22.11-37-34.31,12.88-12,25.17-23.57,37.79-34.81,1.2-1.07,5.25-.75,6.6.46C529,744.8,541.13,756.21,554.06,768.22Z"/><path d="M637,637.14c15.35-9.62,29.07-18.46,43.13-26.75,1.92-1.13,6.41-.48,8.16,1.08,11.25,10,22.07,20.53,34.56,32.33-10.56,7.54-19,13.6-27.48,19.6-17.09,12.1-17.11,12.11-32.46-2.09C654.71,653.73,646.57,646.05,637,637.14Z"/><path d="M388.92,637.09c-13.36,12.45-25,23.46-36.88,34.12-1.41,1.26-5.24,1.72-6.72.72-12.93-8.73-25.59-17.87-39.5-27.73,11.57-11.91,21.91-22.77,32.59-33.28,1.34-1.32,5.12-1.9,6.67-1C359.33,618.44,373.33,627.35,388.92,637.09Z"/><path d="M383.7,943.25c-1.92-1.1-3.82-1.78-5.2-3q-18.12-16.37-36.08-32.92c-4-3.65-3.5-7.07.52-10.44,2-1.64,3.65-3.6,5.45-5.43,17-17.26,17.14-17.4,35.14-.66a271.24,271.24,0,0,1,20.56,21.55c1.56,1.81,2.34,6.52,1.13,8.11-5.63,7.37-12,14.14-18.28,21C386.16,942.32,384.81,942.66,383.7,943.25Z"/><path d="M685.59,902.45c-1.22,1.93-2.05,4.16-3.62,5.61q-18,16.6-36.28,32.92c-4.23,3.8-8,3.24-11.19-1.56a35.06,35.06,0,0,0-3.14-3.66c-16-18.07-16.07-18.19,1.44-35.4,7.33-7.2,15.09-14,23.08-20.45,1.82-1.47,6.57-2.11,7.94-.88,6.91,6.22,13.18,13.17,19.61,19.92A20.84,20.84,0,0,1,685.59,902.45Z"/><path d="M359.73,520.26c12.61-11.83,23.64-22.48,35.12-32.62,1.84-1.62,6.32-2.24,8.49-1.15,12,6,23.61,12.73,37,20.13l-10.68,8.12c-10,7.56-20.21,14.78-29.75,22.84-4.92,4.15-8.51,4-13.44.48C378.5,532.28,370.09,527.09,359.73,520.26Z"/><path d="M585.33,506.37c12.78-7.35,24-14.1,35.57-20.2,2.16-1.14,6.67-.74,8.46.82,11.76,10.28,23.06,21.08,36.25,33.32C653.92,528,644,534.56,633.84,540.9c-.92.58-3.22-.09-4.32-.92C615.23,529.24,601.05,518.37,585.33,506.37Z"/><path d="M384.46,550c-14.76,13.93-28.1,26.33-41.22,39-6.8,6.55-10.91-.84-15.95-2.79-5.85-2.26-3.7-6.71-1.64-10.35,7.55-13.35,15.33-26.56,23-39.83,3.1-5.36,6.7-5.72,11.71-2.09C367.82,539.3,375.65,544.15,384.46,550Z"/><path d="M641.12,550c9.75-6.38,17.85-12.08,26.41-17,1.74-1,6.63.13,7.64,1.77,8.69,14.16,17,28.54,24.87,43.19,1,1.93-.57,7.37-2.43,8.32-4.26,2.19-11.62,5.22-13.86,3.32C669.37,577.47,656,564.11,641.12,550Z"/><path d="M298.86,746.81,339.74,775l-38.37,40.69-6.06-67.26Z"/><path d="M729.49,749.72l-5.21,61.57L721,812.36l-37.45-35.3L726,748Z"/><path d="M296,722.29l7-64.57,33,23.27Z"/><path d="M722.12,658.82l6.58,60.65-2.81,1.23L686.6,683.43Z"/><path d="M450.69,972.35l-56.48-20.48,22.48-25.74,36.37,42.16Z"/><path d="M329.17,890.6l-21.72-50.37,3.61-2.74L354.21,866Z"/><path d="M670.43,867.82l43.74-29.56,3.32,2.19-22.42,52.06Z"/><path d="M608.17,927.1l21.83,25-55,20.24-2.36-3.5Z"/><path d="M311.9,616.79l6.85-22.34,11.71,6.69-16.21,17Z"/><path d="M696.25,600.62l10.3-5.87,6,20.64-2.18,1.42Z"/><path d="M763,342.15c-8.55-27.67-21.51-52.94-43.59-72.78-22.76-20.46-68.11-30.91-97.58-5.83-20.8,17.7-39.73,37.46-57.46,58.21-9,10.51-17.67,21.28-26.2,32.15-7,8.9-13.56,18.29-22.12,25.86-.93.82-2.31-.22-3.08-1.19-6.19-7.8-11.58-15.32-18.28-22.89-10.34-11.69-20.81-23.25-31-35.08-18.79-21.8-39-42.51-61.56-60.44-17.44-13.87-37.84-15-57.11-4.22a126.51,126.51,0,0,0-31.41,25c-25,27.6-40,61.19-53,95.66-1.92,5.09-3.49,10.32-5,14.85,12.78-19.27,24.89-39.38,38.88-58.09,13.59-18.17,30.53-33,52.19-41.63,11.33-4.52,22.42-4.39,32.32,2.25,12.13,8.13,23.38,17.59,35,26.48l-1.9,2.83c-22.94-7.84-45.91-13.51-69.07-1.08-22,11.82-37.63,37.7-35.24,58.42,25.08-38,61.31-39.75,90.75-26.33a469.17,469.17,0,0,1,54.27,29.11c13.75,8.63,24.59,21.33,34.08,34.31,3.12,4.27,30,37.1,28.22,39.41,15.13-19.88,28.3-41.57,46.91-58.34,23.3-21,52.55-42.55,83.46-49.89a69.19,69.19,0,0,1,39.06,1.66,71.38,71.38,0,0,1,18.71,10.09c4,2.95,16.93,12,17.43,17.18a85,85,0,0,0-.95-9.3c-7.83-37.18-36-57-73.7-51.59-10,1.44-19.88,4-29.81,6a146.91,146.91,0,0,1,23.8-23.5C655.37,287,671.55,286,689.43,295c26,12.94,45.49,32.46,60.55,56.58,8.95,14.32,16.3,29.64,24.37,44.5A330.1,330.1,0,0,0,763,342.15Z"/><path d="M777,202.88c-35.84-24.47-76.6-25-117.22-18.64-24,3.73-44.48,13.74-62.32,27.86q.41-6.52,1.07-13l0,0s4.23-16.54,5.21-18.87c2.61-6.23,4.42-12.69,7.44-18.79,6.1-12.33,14.79-23.09,26.37-30.67,19.89-13,34.14-11.89,50.8,4.84,5.1,5.12,9.91,10.51,14.85,15.78a96.69,96.69,0,0,0-22.07-54.6c-8.34-10.2-18.72-17.44-31.85-20.48-17.25-4-35.85-2.58-51.33,6.47-17.57,10.27-23,26.36-32.49,42.9-3.65,6.36-7,12.85-10.3,19.41-2.07,4.16-7.22,10.63-7.1,15.42-.46-17.16,1.15-35.27-4.48-51.71-9.56-27.92-18.72-56-28-84h-1.93C507.34,39.18,500.51,53.38,494.92,68a259.05,259.05,0,0,0-15,56.77c-2.86,20.82,1.34,41.92,4.07,62.51-1.44-8.82-5.54-17.29-8.31-25.75-9.24-28.28-19.48-67.38-49.32-80.67-48.54-21.62-104.72,17.18-102.67,72,5-5.93,9.38-11.39,14.08-16.55,16.84-18.51,31.46-19.95,52.51-5.93,21.48,14.31,31.08,38.08,36,62.28a15.51,15.51,0,0,0,.49,1.94,68,68,0,0,0,.71,15.63c-27-20.21-58.9-30.6-96.24-29-33,1.4-64.66,6.52-90.8,29.37-28.93,25.3-47.26,57.34-60.29,92.88-.28.76.09,1.75.18,3.06a14.29,14.29,0,0,0,2.55-2c30.76-41.71,73.21-66.12,121.82-80.35,12.22-3.58,26.16-3.8,39-2.39C372,224.88,396,239,418.58,255.38c34.15,24.72,48.78,49.46,75.07,82.2,1.9,2.37,16.82,26.75,19.31,29.61,6.29-7.68,22-32.7,27.68-39.26,31.59-36.85,56.65-69.2,100.28-91.87,23.86-12.4,49.2-20.81,76.2-13.71,49.05,12.9,91.82,36.7,124.16,76.94,2,2.45,3.9,5,5.84,7.43C833.62,265,813.59,227.9,777,202.88Z"/></svg>